<svg width="20" height="20" viewBox="0 0 20 20" fill="none" xmlns="http://www.w3.org/2000/svg">
<rect width="20" height="20" rx="4" fill="url(#paint0_linear_22_2)"/>
<rect x="3" y="3" width="14" height="14" rx="4" fill="url(#paint1_linear_22_2)"/>
<path fill-rule="evenodd" clip-rule="evenodd" d="M11.9247 10.5455H16.0075C15.7308 13.6035 13.1502 16 10.0075 16C6.86488 16 4.28424 13.6035 4.00753 10.5455H8.07528C8.31271 11.3849 9.08453 12 10 12C10.9155 12 11.6873 11.3849 11.9247 10.5455ZM11.9481 9.54545H16.0151C15.7818 6.44408 13.1813 4 10.0075 4C6.8338 4 4.23326 6.44408 4 9.54545H8.05188C8.25769 8.65987 9.05178 8 10 8C10.9482 8 11.7423 8.65987 11.9481 9.54545Z" fill="url(#paint2_linear_22_2)"/>
<defs>
<linearGradient id="paint0_linear_22_2" x1="10" y1="0" x2="10" y2="20" gradientUnits="userSpaceOnUse">
<stop stop-color="#750093"/>
<stop offset="1" stop-color="#03000C"/>
</linearGradient>
<linearGradient id="paint1_linear_22_2" x1="10" y1="3" x2="10" y2="17" gradientUnits="userSpaceOnUse">
<stop stop-color="#03000C"/>
<stop offset="1" stop-color="#750093"/>
</linearGradient>
<linearGradient id="paint2_linear_22_2" x1="14.5" y1="-2.5" x2="1" y2="16.5" gradientUnits="userSpaceOnUse">
<stop stop-color="#6700A6"/>
<stop offset="1" stop-color="#FA00FF"/>
</linearGradient>
</defs>
</svg>
